<svg width="17" height="16" viewBox="0 0 17 16" fill="none" xmlns="http://www.w3.org/2000/svg">
<path d="M8.50004 1.33337C12.182 1.33337 15.1667 4.31804 15.1667 8.00004C15.1667 11.682 12.182 14.6667 8.50004 14.6667C4.81804 14.6667 1.83337 11.682 1.83337 8.00004C1.83337 4.31804 4.81804 1.33337 8.50004 1.33337ZM8.50004 2.66671C7.08555 2.66671 5.729 3.22861 4.7288 4.2288C3.72861 5.229 3.16671 6.58555 3.16671 8.00004C3.16671 9.41453 3.72861 10.7711 4.7288 11.7713C5.729 12.7715 7.08555 13.3334 8.50004 13.3334C9.91453 13.3334 11.2711 12.7715 12.2713 11.7713C13.2715 10.7711 13.8334 9.41453 13.8334 8.00004C13.8334 6.58555 13.2715 5.229 12.2713 4.2288C11.2711 3.22861 9.91453 2.66671 8.50004 2.66671ZM11.0554 4.89137C11.1318 4.83774 11.2248 4.81281 11.3179 4.82098C11.4109 4.82915 11.4981 4.86989 11.564 4.93604C11.6299 5.00187 11.6702 5.0889 11.6779 5.18168C11.6856 5.27445 11.6601 5.36694 11.606 5.44271C10.1527 7.47337 9.35271 8.56137 9.20737 8.70737C9.01965 8.89472 8.76526 8.99994 8.50004 8.99994C8.23482 8.99994 7.98044 8.89472 7.79271 8.70737C7.60536 8.51965 7.50014 8.26526 7.50014 8.00004C7.50014 7.73482 7.60536 7.48044 7.79271 7.29271C8.04204 7.04404 9.12937 6.24337 11.0554 4.89137ZM12.1667 7.33337C12.3435 7.33337 12.5131 7.40361 12.6381 7.52864C12.7631 7.65366 12.8334 7.82323 12.8334 8.00004C12.8334 8.17685 12.7631 8.34642 12.6381 8.47145C12.5131 8.59647 12.3435 8.66671 12.1667 8.66671C11.9899 8.66671 11.8203 8.59647 11.6953 8.47145C11.5703 8.34642 11.5 8.17685 11.5 8.00004C11.5 7.82323 11.5703 7.65366 11.6953 7.52864C11.8203 7.40361 11.9899 7.33337 12.1667 7.33337ZM4.83337 7.33337C5.01019 7.33337 5.17975 7.40361 5.30478 7.52864C5.4298 7.65366 5.50004 7.82323 5.50004 8.00004C5.50004 8.17685 5.4298 8.34642 5.30478 8.47145C5.17975 8.59647 5.01019 8.66671 4.83337 8.66671C4.65656 8.66671 4.48699 8.59647 4.36197 8.47145C4.23695 8.34642 4.16671 8.17685 4.16671 8.00004C4.16671 7.82323 4.23695 7.65366 4.36197 7.52864C4.48699 7.40361 4.65656 7.33337 4.83337 7.33337ZM6.37871 4.93604C6.50371 5.06122 6.57387 5.23094 6.57374 5.40785C6.57362 5.58475 6.50322 5.75437 6.37804 5.87937C6.25286 6.00438 6.08315 6.07454 5.90624 6.07441C5.72933 6.07429 5.55971 6.00389 5.43471 5.87871C5.37281 5.81672 5.32373 5.74316 5.29026 5.6622C5.2568 5.58125 5.23961 5.4945 5.23967 5.4069C5.23973 5.31931 5.25705 5.23258 5.29063 5.15167C5.3242 5.07077 5.37339 4.99727 5.43537 4.93537C5.56056 4.81037 5.73027 4.74021 5.90718 4.74034C5.99478 4.7404 6.0815 4.75771 6.16241 4.79129C6.24331 4.82487 6.31681 4.87406 6.37871 4.93604ZM8.50004 3.66671C8.67685 3.66671 8.84642 3.73695 8.97145 3.86197C9.09647 3.98699 9.16671 4.15656 9.16671 4.33337C9.16671 4.51019 9.09647 4.67975 8.97145 4.80478C8.84642 4.9298 8.67685 5.00004 8.50004 5.00004C8.32323 5.00004 8.15366 4.9298 8.02864 4.80478C7.90361 4.67975 7.83337 4.51019 7.83337 4.33337C7.83337 4.15656 7.90361 3.98699 8.02864 3.86197C8.15366 3.73695 8.32323 3.66671 8.50004 3.66671Z" fill="white"/>
</svg>
